<svg xmlns="http://www.w3.org/2000/svg" viewBox="0 0 240 160">
  <defs>
    <radialGradient id="bg" cx="0.5" cy="0.45" r="0.9">
      <stop offset="0" stop-color="#1b1b2f"/>
      <stop offset="1" stop-color="#050510"/>
    </radialGradient>
    <linearGradient id="shield" x1="0" y1="0" x2="0" y2="1">
      <stop offset="0" stop-color="#4fc3f7"/>
      <stop offset="1" stop-color="#1565c0"/>
    </linearGradient>
    <filter id="glow" x="-60%" y="-60%" width="220%" height="220%">
      <feGaussianBlur stdDeviation="4" result="b"/>
      <feMerge>
        <feMergeNode in="b"/>
        <feMergeNode in="SourceGraphic"/>
      </feMerge>
    </filter>
  </defs>
  <rect width="240" height="160" rx="16" fill="url(#bg)"/>
  <circle cx="120" cy="82" r="52" fill="none" stroke="#ff5252" stroke-width="2" stroke-dasharray="8 6" opacity="0.8"/>
  <circle cx="120" cy="82" r="40" fill="none" stroke="#ffffff" stroke-opacity="0.5" stroke-width="2"/>
  <line x1="120" y1="22" x2="120" y2="142" stroke="#ffffff" stroke-opacity="0.4" stroke-width="2"/>
  <line x1="60" y1="82" x2="180" y2="82" stroke="#ffffff" stroke-opacity="0.4" stroke-width="2"/>
  <g filter="url(#glow)">
    <path d="M120 44 L150 56 V86 C150 108 136 122 120 130 C104 122 90 108 90 86 V56 Z" fill="url(#shield)" stroke="#e1f5fe" stroke-width="3"/>
    <rect x="114" y="66" width="12" height="34" rx="5" fill="#e1f5fe" transform="rotate(24 120 83)"/>
    <circle cx="120" cy="92" r="9" fill="#e1f5fe"/>
    <circle cx="120" cy="92" r="4" fill="#1565c0"/>
  </g>
  <circle cx="52" cy="40" r="7" fill="#ff5252"/>
  <circle cx="190" cy="120" r="7" fill="#ff5252"/>
  <line x1="60" y1="46" x2="96" y2="66" stroke="#00ffff" stroke-width="3" stroke-linecap="round"/>
  <line x1="182" y1="114" x2="148" y2="96" stroke="#00ffff" stroke-width="3" stroke-linecap="round"/>
</svg>
